<svg version="1.2" xmlns="http://www.w3.org/2000/svg" viewBox="0 0 270 120" width="270" height="120">
	<title>TEST</title>
	<style>
		.s0 { fill: none;stroke: #4552ac;stroke-width: 3 } 
		.s1 { fill: #4552ac } 
	</style>
	<path id="Ellisse 1" class="s0" d="m202 34c14.9 0 27 12.1 27 27 0 14.9-12.1 27-27 27-14.9 0-27-12.1-27-27 0-14.9 12.1-27 27-27z"/>
	<path id="x" class="s1" aria-label="x"  d="m191.2 74l9.3-13.1-8.9-12.6h4.4l6.8 9.9 6.8-9.9h4.4l-8.9 12.6 9.4 13.1h-4.5l-7.2-10.5-7.2 10.5z"/>
	<path id="CHIUDI" class="s1" aria-label="CHIUDI"  d="m60.6 51.6q-2.1 0-3.8 0.7-1.7 0.7-2.9 2.1-1.2 1.4-1.8 3.3-0.7 2-0.7 4.4 0 3.3 1 5.7 1.1 2.3 3.1 3.6 2 1.3 5 1.3 1.7 0 3.2-0.2 1.6-0.3 3-0.8v2.6q-1.4 0.5-2.9 0.8-1.6 0.3-3.7 0.3-3.9 0-6.6-1.7-2.6-1.6-3.9-4.6-1.3-2.9-1.3-7 0-2.9 0.8-5.3 0.8-2.4 2.4-4.2 1.6-1.8 3.9-2.7 2.3-1 5.2-1 2 0 3.8 0.4 1.8 0.4 3.3 1.1l-1.2 2.6q-1.3-0.6-2.7-1-1.5-0.4-3.2-0.4zm31.2-2.3v25.7h-3v-12.1h-13.5v12.1h-3v-25.7h3v11h13.5v-11zm10 25.7h-3v-25.7h3zm23.6-25.7h2.9v16.6q0 2.8-1.1 4.9-1.1 2.1-3.3 3.3-2.2 1.3-5.5 1.3-4.8 0-7.3-2.6-2.5-2.6-2.5-6.9v-16.6h3v16.6q0 3.3 1.8 5.1 1.7 1.8 5.1 1.8 2.4 0 3.9-0.9 1.5-0.8 2.2-2.4 0.8-1.5 0.8-3.5zm30.1 12.6q0 4.3-1.5 7.2-1.6 2.9-4.6 4.4-3 1.5-7.3 1.5h-7v-25.7h7.8q3.9 0 6.7 1.4 2.9 1.4 4.4 4.2 1.5 2.8 1.5 7zm-3.1 0.1q0-3.5-1.2-5.7-1.1-2.3-3.3-3.4-2.3-1.1-5.5-1.1h-4.3v20.6h3.7q5.3 0 7.9-2.6 2.7-2.6 2.7-7.8zm11.8 13h-2.9v-25.7h2.9z"/>
</svg>